<?xml version="1.0" standalone="no"?>
<!DOCTYPE svg PUBLIC "-//W3C//DTD SVG 20010904//EN"
 "http://www.w3.org/TR/2001/REC-SVG-20010904/DTD/svg10.dtd">
<svg version="1.0" xmlns="http://www.w3.org/2000/svg"
 width="162.000000pt" height="45.000000pt" viewBox="0 0 320.000000 168.000000"
 preserveAspectRatio="xMidYMid meet">
<metadata>
Created by potrace 1.16, written by Peter Selinger 2001-2019
</metadata>
<g transform="translate(0.000000,168.000000) scale(0.100000,-0.100000)"
fill="#000000" stroke="none">
<path d="M340 954 l0 -176 103 4 c169 7 210 44 205 185 -3 71 -6 85 -28 108
-39 43 -80 55 -185 55 l-95 0 0 -176z m190 99 c19 -25 21 -38 18 -106 -3 -68
-6 -82 -27 -98 -13 -10 -36 -19 -52 -19 l-28 0 -3 125 -3 125 37 0 c28 0 42
-6 58 -27z"/>
<path d="M826 1120 c-37 -11 -68 -40 -61 -57 2 -8 1 -11 -5 -8 -16 10 -33 -77
-26 -135 4 -30 15 -66 24 -80 25 -35 79 -60 128 -60 71 0 176 46 117 51 -10 1
-46 1 -79 0 -54 -3 -63 0 -78 20 -9 13 -16 36 -16 51 0 24 4 27 48 33 69 10
141 34 151 52 10 19 -2 77 -21 100 -31 38 -115 53 -182 33z m112 -53 c6 -5 12
-22 12 -38 0 -33 -18 -45 -79 -55 -41 -7 -41 -6 -41 25 0 73 56 108 108 68z"/>
<path d="M1587 1116 c-20 -7 -43 -19 -51 -25 -46 -38 -61 -165 -28 -231 34
-69 144 -99 232 -64 69 28 53 39 -51 35 -51 -3 -58 0 -78 24 -31 40 -31 160 1
200 20 26 25 27 79 22 37 -3 64 -1 74 7 15 11 14 13 -12 25 -43 20 -123 23
-166 7z"/>
<path d="M1923 1111 c-55 -26 -83 -78 -83 -158 0 -77 24 -121 80 -150 87 -45
196 -16 231 61 24 53 24 130 -1 184 -34 74 -138 103 -227 63z m126 -57 c17
-21 21 -41 21 -99 0 -58 -4 -78 -21 -99 -25 -32 -55 -33 -86 -4 -20 19 -23 31
-23 103 0 68 3 85 20 103 28 30 64 28 89 -4z"/>
<path d="M2290 1123 c-8 -2 -21 -6 -28 -9 -9 -2 -7 -9 8 -24 18 -18 20 -33 20
-160 l0 -140 45 0 45 0 0 135 c0 125 1 135 20 145 12 6 33 10 48 8 l27 -3 3
-142 3 -143 44 0 45 0 0 135 c0 125 1 135 20 145 12 6 33 10 48 8 l27 -3 3
-142 3 -143 44 0 45 0 0 148 c0 197 2 194 -185 182 -22 -1 -63 1 -90 5 -36 5
-61 3 -86 -8 -30 -12 -38 -12 -54 -1 -20 15 -30 16 -55 7z"/>
<path d="M1090 1111 c0 -12 69 -98 103 -130 l25 -23 -36 -32 c-34 -29 -92
-111 -92 -128 0 -4 19 -8 43 -8 38 0 44 3 61 34 10 19 29 45 43 58 l24 22 25
-29 c13 -17 31 -42 39 -57 13 -24 22 -28 61 -28 l45 0 -17 32 c-9 17 -39 56
-67 85 l-51 54 29 23 c19 15 25 27 20 36 -5 8 -4 11 2 7 11 -7 39 21 66 66
l17 27 -50 0 c-35 0 -50 -4 -50 -13 0 -7 -16 -32 -36 -56 l-37 -42 -22 21
c-12 12 -31 37 -41 56 -17 31 -23 34 -61 34 -24 0 -43 -4 -43 -9z"/>
<path d="M1560 693 c-45 -17 -66 -73 -38 -101 21 -21 65 -14 87 14 26 33 26
49 1 74 -21 21 -25 22 -50 13z m49 -31 c17 -32 -9 -67 -49 -67 -30 0 -35 4
-38 26 -6 50 65 83 87 41z"/>
<path d="M1918 693 c-28 -7 -29 -33 -3 -57 34 -32 32 -49 -5 -44 -16 3 -30 1
-30 -4 0 -5 15 -8 33 -6 39 4 51 40 18 58 -30 15 -26 38 7 42 17 2 21 5 12 9
-8 3 -22 4 -32 2z"/>
<path d="M2297 639 c-16 -28 -26 -53 -23 -56 3 -3 8 2 12 11 8 21 50 21 63 -1
8 -14 10 -7 5 27 -11 87 -18 90 -57 19z m43 6 c0 -18 -5 -25 -20 -25 -17 0
-18 3 -8 25 6 14 15 25 20 25 4 0 8 -11 8 -25z"/>
<path d="M2401 674 c0 -11 3 -14 6 -6 3 7 2 16 -1 19 -3 4 -6 -2 -5 -13z"/>
<path d="M2744 673 c-4 -14 -11 -19 -25 -16 -27 7 -49 -14 -49 -48 0 -26 3
-29 34 -29 32 0 34 2 44 53 10 50 7 82 -4 40z m-16 -50 c-2 -20 -9 -29 -25
-31 -18 -3 -23 1 -23 21 0 29 7 37 32 37 15 0 19 -6 16 -27z"/>
<path d="M1993 667 c-14 -21 -9 -80 7 -85 11 -3 12 -1 4 7 -14 15 -6 59 11 63
11 2 11 5 0 15 -10 10 -15 10 -22 0z"/>
<path d="M1655 646 c-12 -40 -14 -66 -5 -66 5 0 10 10 10 23 0 26 17 47 38 47
10 0 13 -10 10 -35 -2 -19 0 -35 4 -35 4 0 8 14 8 30 0 17 0 33 0 38 0 12 -61
10 -65 -2z"/>
<path d="M1754 636 c-20 -32 -5 -57 35 -55 l26 2 -27 4 c-39 6 -37 33 3 33 24
0 30 4 27 18 -5 28 -44 27 -64 -2z m56 4 c0 -5 -12 -10 -26 -10 -14 0 -23 4
-19 10 3 6 15 10 26 10 10 0 19 -4 19 -10z"/>
<path d="M2051 646 c-7 -8 -11 -25 -9 -38 2 -17 10 -23 31 -24 25 -1 25 -1 2
3 -37 6 -32 33 6 33 24 0 30 4 27 18 -4 22 -41 27 -57 8z m49 -6 c0 -5 -12
-10 -26 -10 -14 0 -23 4 -19 10 3 6 15 10 26 10 10 0 19 -4 19 -10z"/>
<path d="M2135 616 c-4 -23 -9 -49 -12 -60 -3 -12 -1 -16 6 -12 6 4 11 15 11
25 0 14 6 17 23 14 28 -6 50 18 45 49 -2 18 -10 23 -35 24 -30 1 -32 -2 -38
-40z m63 7 c-2 -20 -9 -29 -25 -31 -18 -3 -23 1 -23 21 0 29 7 37 32 37 15 0
19 -6 16 -27z"/>
<path d="M2408 653 c-10 -2 -18 -10 -18 -16 0 -7 -3 -23 -6 -37 -4 -19 -1 -17
13 10 10 19 27 36 37 38 17 4 18 0 13 -32 -3 -20 -2 -36 4 -36 5 0 9 18 9 40
0 41 -6 45 -52 33z"/>
<path d="M2495 637 c-22 -34 -10 -57 29 -56 30 2 30 2 4 6 -39 6 -37 33 3 33
24 0 30 4 27 18 -5 27 -44 27 -63 -1z m55 3 c0 -5 -12 -10 -26 -10 -14 0 -23
4 -19 10 3 6 15 10 26 10 10 0 19 -4 19 -10z"/>
<path d="M2608 653 c23 -5 31 -23 9 -23 -7 0 -22 -6 -32 -14 -16 -11 -17 -17
-7 -29 7 -8 22 -12 36 -10 18 4 25 13 29 36 6 41 2 47 -31 46 -24 -2 -24 -2
-4 -6z m20 -45 c-3 -7 -15 -15 -28 -16 -21 -3 -22 -2 -11 12 16 19 44 21 39 4z"/>
</g>
</svg>
