<?xml version="1.0" standalone="no"?>
<!DOCTYPE svg PUBLIC "-//W3C//DTD SVG 20010904//EN"
 "http://www.w3.org/TR/2001/REC-SVG-20010904/DTD/svg10.dtd">
<svg version="1.0" xmlns="http://www.w3.org/2000/svg"
 width="60pt" height="60pt" viewBox="0 0 290.000000 174.000000"
 preserveAspectRatio="xMidYMid meet">

<g transform="translate(0.000000,174.000000) scale(0.100000,-0.100000)"
fill="#000000" stroke="none">
<path d="M1390 1507 c-25 -7 -57 -20 -70 -30 -31 -21 -59 -22 -88 -1 -30 21
-52 11 -52 -23 0 -41 34 -90 74 -107 39 -16 133 -23 160 -11 28 12 49 -21 43
-69 -5 -36 4 -60 50 -125 2 -2 14 1 27 7 32 14 55 87 63 197 5 72 3 83 -17
108 -12 15 -26 27 -32 27 -6 0 -19 6 -27 14 -24 21 -80 27 -131 13z"/>
<path d="M863 1020 c-24 -26 -43 -54 -43 -61 0 -7 14 -25 32 -39 l32 -27 -22
-233 c-17 -180 -19 -236 -10 -241 15 -9 108 -23 114 -17 2 3 16 50 30 106 15
56 30 102 33 102 3 0 19 -31 34 -69 15 -38 46 -97 68 -131 22 -34 39 -64 37
-65 -2 -2 -34 -17 -72 -34 -64 -29 -78 -31 -210 -35 -78 -3 -170 -9 -206 -15
-36 -5 -104 -13 -151 -16 l-87 -7 -4 -59 c-2 -32 -6 -60 -9 -63 -2 -2 -35 -6
-72 -8 l-69 -4 3 85 c2 78 -2 94 -35 176 -65 160 -72 167 -94 95 -13 -45 -11
-188 4 -286 l6 -41 -53 -7 c-104 -13 -104 -39 -1 -55 238 -38 499 -51 1122
-58 694 -7 1208 11 1495 53 54 8 104 19 109 24 28 28 -89 51 -126 26 -20 -14
-80 -16 -529 -16 -484 0 -508 1 -530 19 -24 19 -24 21 -29 276 -4 219 -7 258
-21 268 -9 7 -18 19 -22 27 -3 8 -6 -37 -7 -100 -2 -154 -11 -215 -30 -215
-10 0 -17 14 -21 45 -3 25 -7 39 -7 33 -3 -25 -22 -13 -23 15 0 15 -3 21 -6
13 -4 -10 -9 -8 -19 10 l-13 24 -1 -30 c-1 -16 -4 -24 -7 -18 -3 10 -8 9 -20
-2 -46 -47 -126 2 -352 217 -123 117 -193 195 -122 136 42 -36 51 -35 51 3 0
27 -2 30 -15 19 -13 -11 -26 -3 -82 47 -37 32 -68 63 -70 69 -2 5 14 28 35 51
l37 43 75 -69 c60 -56 73 -72 63 -82 -7 -7 -13 -24 -13 -37 0 -18 4 -22 19
-17 15 4 22 -3 37 -38 16 -39 29 -51 117 -103 122 -72 114 -70 119 -41 4 20 1
23 -14 19 -14 -3 -18 1 -18 25 0 20 -14 45 -47 82 -61 70 -191 181 -212 181
-9 0 -39 23 -66 50 -27 28 -54 50 -60 50 -5 -1 -29 -23 -52 -50z m684 -686
c-3 -3 -12 -4 -19 -1 -8 3 -5 6 6 6 11 1 17 -2 13 -5z"/>
<path d="M2156 930 c-42 -13 -85 -58 -97 -103 -13 -49 2 -97 42 -134 l29 -28
0 -141 c0 -159 -2 -154 76 -154 59 0 64 14 62 175 -1 116 1 127 19 140 52 37
65 132 26 191 -29 45 -103 70 -157 54z"/>
<path d="M1448 743 c-12 -17 -43 -35 -78 -46 -8 -3 5 -6 30 -6 25 -1 55 -4 68
-7 20 -6 22 -3 22 35 0 45 -18 55 -42 24z"/>
<path d="M1502 520 c0 -14 2 -19 5 -12 2 6 2 18 0 25 -3 6 -5 1 -5 -13z"/>
<path d="M1540 420 c0 -22 5 -40 10 -40 6 0 10 18 10 40 0 22 -4 40 -10 40 -5
0 -10 -18 -10 -40z"/>
</g>
</svg>
